<svg xmlns="http://www.w3.org/2000/svg" width="1600" height="1000" viewBox="0 0 1600 1000">
<rect width="1600" height="1000" fill="#0E1116"/>
<g opacity="0.45" stroke="#1B2230" stroke-width="0.5">
<line x1="0" y1="0" x2="0" y2="1000"/>
<line x1="40" y1="0" x2="40" y2="1000"/>
<line x1="80" y1="0" x2="80" y2="1000"/>
<line x1="120" y1="0" x2="120" y2="1000"/>
<line x1="160" y1="0" x2="160" y2="1000"/>
<line x1="200" y1="0" x2="200" y2="1000"/>
<line x1="240" y1="0" x2="240" y2="1000"/>
<line x1="280" y1="0" x2="280" y2="1000"/>
<line x1="320" y1="0" x2="320" y2="1000"/>
<line x1="360" y1="0" x2="360" y2="1000"/>
<line x1="400" y1="0" x2="400" y2="1000"/>
<line x1="440" y1="0" x2="440" y2="1000"/>
<line x1="480" y1="0" x2="480" y2="1000"/>
<line x1="520" y1="0" x2="520" y2="1000"/>
<line x1="560" y1="0" x2="560" y2="1000"/>
<line x1="600" y1="0" x2="600" y2="1000"/>
<line x1="640" y1="0" x2="640" y2="1000"/>
<line x1="680" y1="0" x2="680" y2="1000"/>
<line x1="720" y1="0" x2="720" y2="1000"/>
<line x1="760" y1="0" x2="760" y2="1000"/>
<line x1="800" y1="0" x2="800" y2="1000"/>
<line x1="840" y1="0" x2="840" y2="1000"/>
<line x1="880" y1="0" x2="880" y2="1000"/>
<line x1="920" y1="0" x2="920" y2="1000"/>
<line x1="960" y1="0" x2="960" y2="1000"/>
<line x1="1000" y1="0" x2="1000" y2="1000"/>
<line x1="1040" y1="0" x2="1040" y2="1000"/>
<line x1="1080" y1="0" x2="1080" y2="1000"/>
<line x1="1120" y1="0" x2="1120" y2="1000"/>
<line x1="1160" y1="0" x2="1160" y2="1000"/>
<line x1="1200" y1="0" x2="1200" y2="1000"/>
<line x1="1240" y1="0" x2="1240" y2="1000"/>
<line x1="1280" y1="0" x2="1280" y2="1000"/>
<line x1="1320" y1="0" x2="1320" y2="1000"/>
<line x1="1360" y1="0" x2="1360" y2="1000"/>
<line x1="1400" y1="0" x2="1400" y2="1000"/>
<line x1="1440" y1="0" x2="1440" y2="1000"/>
<line x1="1480" y1="0" x2="1480" y2="1000"/>
<line x1="1520" y1="0" x2="1520" y2="1000"/>
<line x1="1560" y1="0" x2="1560" y2="1000"/>
<line x1="1600" y1="0" x2="1600" y2="1000"/>
<line x1="0" y1="0" x2="1600" y2="0"/>
<line x1="0" y1="40" x2="1600" y2="40"/>
<line x1="0" y1="80" x2="1600" y2="80"/>
<line x1="0" y1="120" x2="1600" y2="120"/>
<line x1="0" y1="160" x2="1600" y2="160"/>
<line x1="0" y1="200" x2="1600" y2="200"/>
<line x1="0" y1="240" x2="1600" y2="240"/>
<line x1="0" y1="280" x2="1600" y2="280"/>
<line x1="0" y1="320" x2="1600" y2="320"/>
<line x1="0" y1="360" x2="1600" y2="360"/>
<line x1="0" y1="400" x2="1600" y2="400"/>
<line x1="0" y1="440" x2="1600" y2="440"/>
<line x1="0" y1="480" x2="1600" y2="480"/>
<line x1="0" y1="520" x2="1600" y2="520"/>
<line x1="0" y1="560" x2="1600" y2="560"/>
<line x1="0" y1="600" x2="1600" y2="600"/>
<line x1="0" y1="640" x2="1600" y2="640"/>
<line x1="0" y1="680" x2="1600" y2="680"/>
<line x1="0" y1="720" x2="1600" y2="720"/>
<line x1="0" y1="760" x2="1600" y2="760"/>
<line x1="0" y1="800" x2="1600" y2="800"/>
<line x1="0" y1="840" x2="1600" y2="840"/>
<line x1="0" y1="880" x2="1600" y2="880"/>
<line x1="0" y1="920" x2="1600" y2="920"/>
<line x1="0" y1="960" x2="1600" y2="960"/>
<line x1="0" y1="1000" x2="1600" y2="1000"/>
</g>
<rect x="0" y="0" width="1600" height="58" fill="#161A20"/>
<line x1="0" y1="58" x2="1600" y2="58" stroke="#2A3140" stroke-width="0.5"/>
<circle cx="22" cy="29" r="4" fill="#5DD39E"/>
<text x="38" y="34" fill="#E8A33D" font-family="IBM Plex Mono, monospace" font-size="14" font-weight="500" letter-spacing="2">FIG.B · TEST PROCEDURE</text>
<text x="1578" y="34" fill="#8A8F98" font-family="IBM Plex Mono, monospace" font-size="12" letter-spacing="1.6" text-anchor="end">BENCH → SEQ → SAFETY → RECORD</text>
<text x="48" y="170" fill="#E8E6E0" font-family="Inter, sans-serif" font-size="64" font-weight="500" letter-spacing="-2">Test prosedürü akışı</text>
<text x="48" y="218" fill="#B5B0A6" font-family="Inter, sans-serif" font-size="26">Stand kurulumu, test dizisi, güvenlik kontrolü ve veri kaydı</text>
<rect x="48" y="290" width="332" height="420" fill="#161A20" stroke="#2A3140" stroke-width="0.5"/>
<rect x="48" y="290" width="332" height="56" fill="#1B2230" stroke="#2A3140" stroke-width="0.5"/>
<text x="70" y="324" fill="#E8A33D" font-family="IBM Plex Mono, monospace" font-size="14" font-weight="500" letter-spacing="2">STEP · 01</text>
<text x="70" y="386" fill="#E8E6E0" font-family="Inter, sans-serif" font-size="22" font-weight="500" letter-spacing="-0.5">STAND KURULUMU</text>
<line x1="70" y1="408" x2="358" y2="408" stroke="#2A3140" stroke-width="0.5"/>
<text x="70" y="450" fill="#B5B0A6" font-family="Inter, sans-serif" font-size="17">› Motor sabitleme</text>
<text x="70" y="494" fill="#B5B0A6" font-family="Inter, sans-serif" font-size="17">› Kaplin hizalama</text>
<text x="70" y="538" fill="#B5B0A6" font-family="Inter, sans-serif" font-size="17">› Sensör montajı</text>
<text x="70" y="582" fill="#B5B0A6" font-family="Inter, sans-serif" font-size="17">› Kablolama</text>
<rect x="70" y="652" width="288" height="32" fill="#131820" stroke="#5DD39E" stroke-width="0.5"/>
<circle cx="86" cy="668" r="4" fill="#5DD39E"/>
<text x="98" y="673" fill="#5DD39E" font-family="IBM Plex Mono, monospace" font-size="11" letter-spacing="2">PASSED</text>
<line x1="388" y1="500" x2="404" y2="500" stroke="#E8A33D" stroke-width="1.2"/>
<polyline points="400,495 406,500 400,505" fill="none" stroke="#E8A33D" stroke-width="1.2"/>
<rect x="412" y="290" width="332" height="420" fill="#161A20" stroke="#2A3140" stroke-width="0.5"/>
<rect x="412" y="290" width="332" height="56" fill="#1B2230" stroke="#2A3140" stroke-width="0.5"/>
<text x="434" y="324" fill="#E8A33D" font-family="IBM Plex Mono, monospace" font-size="14" font-weight="500" letter-spacing="2">STEP · 02</text>
<text x="434" y="386" fill="#E8E6E0" font-family="Inter, sans-serif" font-size="22" font-weight="500" letter-spacing="-0.5">TEST DİZİSİ</text>
<line x1="434" y1="408" x2="722" y2="408" stroke="#2A3140" stroke-width="0.5"/>
<text x="434" y="450" fill="#B5B0A6" font-family="Inter, sans-serif" font-size="17">› No-load → load</text>
<text x="434" y="494" fill="#B5B0A6" font-family="Inter, sans-serif" font-size="17">› Devir/tork rampası</text>
<text x="434" y="538" fill="#B5B0A6" font-family="Inter, sans-serif" font-size="17">› Sıcaklık seyri</text>
<text x="434" y="582" fill="#B5B0A6" font-family="Inter, sans-serif" font-size="17">› Verim haritası</text>
<rect x="434" y="652" width="288" height="32" fill="#131820" stroke="#5DD39E" stroke-width="0.5"/>
<circle cx="450" cy="668" r="4" fill="#5DD39E"/>
<text x="462" y="673" fill="#5DD39E" font-family="IBM Plex Mono, monospace" font-size="11" letter-spacing="2">PASSED</text>
<line x1="752" y1="500" x2="768" y2="500" stroke="#E8A33D" stroke-width="1.2"/>
<polyline points="764,495 770,500 764,505" fill="none" stroke="#E8A33D" stroke-width="1.2"/>
<rect x="776" y="290" width="332" height="420" fill="#161A20" stroke="#2A3140" stroke-width="0.5"/>
<rect x="776" y="290" width="332" height="56" fill="#1B2230" stroke="#2A3140" stroke-width="0.5"/>
<text x="798" y="324" fill="#E8A33D" font-family="IBM Plex Mono, monospace" font-size="14" font-weight="500" letter-spacing="2">STEP · 03</text>
<text x="798" y="386" fill="#E8E6E0" font-family="Inter, sans-serif" font-size="22" font-weight="500" letter-spacing="-0.5">GÜVENLİK</text>
<line x1="798" y1="408" x2="1086" y2="408" stroke="#2A3140" stroke-width="0.5"/>
<text x="798" y="450" fill="#B5B0A6" font-family="Inter, sans-serif" font-size="17">› E-stop devresi</text>
<text x="798" y="494" fill="#B5B0A6" font-family="Inter, sans-serif" font-size="17">› Aşırı akım kilidi</text>
<text x="798" y="538" fill="#B5B0A6" font-family="Inter, sans-serif" font-size="17">› Termal limit</text>
<text x="798" y="582" fill="#B5B0A6" font-family="Inter, sans-serif" font-size="17">› Operatör onayı</text>
<rect x="798" y="652" width="288" height="32" fill="#131820" stroke="#5DD39E" stroke-width="0.5"/>
<circle cx="814" cy="668" r="4" fill="#5DD39E"/>
<text x="826" y="673" fill="#5DD39E" font-family="IBM Plex Mono, monospace" font-size="11" letter-spacing="2">PASSED</text>
<line x1="1116" y1="500" x2="1132" y2="500" stroke="#E8A33D" stroke-width="1.2"/>
<polyline points="1128,495 1134,500 1128,505" fill="none" stroke="#E8A33D" stroke-width="1.2"/>
<rect x="1140" y="290" width="332" height="420" fill="#161A20" stroke="#2A3140" stroke-width="0.5"/>
<rect x="1140" y="290" width="332" height="56" fill="#1B2230" stroke="#2A3140" stroke-width="0.5"/>
<text x="1162" y="324" fill="#E8A33D" font-family="IBM Plex Mono, monospace" font-size="14" font-weight="500" letter-spacing="2">STEP · 04</text>
<text x="1162" y="386" fill="#E8E6E0" font-family="Inter, sans-serif" font-size="22" font-weight="500" letter-spacing="-0.5">VERİ KAYDI</text>
<line x1="1162" y1="408" x2="1450" y2="408" stroke="#2A3140" stroke-width="0.5"/>
<text x="1162" y="450" fill="#B5B0A6" font-family="Inter, sans-serif" font-size="17">› Çok kanallı DAQ</text>
<text x="1162" y="494" fill="#B5B0A6" font-family="Inter, sans-serif" font-size="17">› Senkronize log</text>
<text x="1162" y="538" fill="#B5B0A6" font-family="Inter, sans-serif" font-size="17">› Run-ID etiket</text>
<text x="1162" y="582" fill="#B5B0A6" font-family="Inter, sans-serif" font-size="17">› Doğrulama</text>
<rect x="1162" y="652" width="288" height="32" fill="#131820" stroke="#5DD39E" stroke-width="0.5"/>
<circle cx="1178" cy="668" r="4" fill="#5DD39E"/>
<text x="1190" y="673" fill="#5DD39E" font-family="IBM Plex Mono, monospace" font-size="11" letter-spacing="2">PASSED</text>
<text x="48" y="970" fill="#8A8F98" font-family="IBM Plex Mono, monospace" font-size="11" letter-spacing="2">PROCEDURE · 4-STEP · APPLIED ACROSS PMSM, BLDC, ASENKRON</text>
</svg>